<mxfile host="app.diagrams.net" modified="2024-02-12T14:14:22.993Z" agent="Mozilla/5.0 (Windows NT 10.0; Win64; x64) AppleWebKit/537.36 (KHTML, like Gecko) Chrome/121.0.0.0 Safari/537.36 Edg/121.0.0.0" etag="5N1Ofk-nFmCPo05sGjjW" version="23.1.1" type="device">
  <diagram name="Stránka-1" id="fCRRNz5w919-U5NtfsEV">
    <mxGraphModel dx="976" dy="546" grid="1" gridSize="10" guides="1" tooltips="1" connect="1" arrows="1" fold="1" page="1" pageScale="1" pageWidth="827" pageHeight="1169" math="0" shadow="0">
      <root>
        <mxCell id="0" />
        <mxCell id="1" parent="0" />
        <mxCell id="0v8dPHS8Fib6eOv3jz4j-3" value="" style="edgeStyle=orthogonalEdgeStyle;rounded=0;orthogonalLoop=1;jettySize=auto;html=1;" edge="1" parent="1" source="0v8dPHS8Fib6eOv3jz4j-1" target="0v8dPHS8Fib6eOv3jz4j-4">
          <mxGeometry relative="1" as="geometry">
            <mxPoint x="414" y="370.0000000000001" as="targetPoint" />
          </mxGeometry>
        </mxCell>
        <mxCell id="0v8dPHS8Fib6eOv3jz4j-1" value="Fibonacci" style="ellipse;whiteSpace=wrap;html=1;aspect=fixed;" vertex="1" parent="1">
          <mxGeometry x="374" y="250" width="80" height="80" as="geometry" />
        </mxCell>
        <mxCell id="0v8dPHS8Fib6eOv3jz4j-6" value="" style="edgeStyle=orthogonalEdgeStyle;rounded=0;orthogonalLoop=1;jettySize=auto;html=1;" edge="1" parent="1" source="0v8dPHS8Fib6eOv3jz4j-4" target="0v8dPHS8Fib6eOv3jz4j-5">
          <mxGeometry relative="1" as="geometry" />
        </mxCell>
        <mxCell id="0v8dPHS8Fib6eOv3jz4j-4" value="N=rok(celé číslo)" style="shape=parallelogram;perimeter=parallelogramPerimeter;whiteSpace=wrap;html=1;fixedSize=1;" vertex="1" parent="1">
          <mxGeometry x="354" y="370" width="120" height="60" as="geometry" />
        </mxCell>
        <mxCell id="0v8dPHS8Fib6eOv3jz4j-11" style="edgeStyle=orthogonalEdgeStyle;rounded=0;orthogonalLoop=1;jettySize=auto;html=1;exitX=0.5;exitY=1;exitDx=0;exitDy=0;" edge="1" parent="1" source="0v8dPHS8Fib6eOv3jz4j-5" target="0v8dPHS8Fib6eOv3jz4j-9">
          <mxGeometry relative="1" as="geometry" />
        </mxCell>
        <mxCell id="0v8dPHS8Fib6eOv3jz4j-5" value="a,b = 1" style="whiteSpace=wrap;html=1;" vertex="1" parent="1">
          <mxGeometry x="354" y="460" width="120" height="60" as="geometry" />
        </mxCell>
        <mxCell id="0v8dPHS8Fib6eOv3jz4j-13" value="" style="edgeStyle=orthogonalEdgeStyle;rounded=0;orthogonalLoop=1;jettySize=auto;html=1;" edge="1" parent="1" source="0v8dPHS8Fib6eOv3jz4j-9" target="0v8dPHS8Fib6eOv3jz4j-14">
          <mxGeometry relative="1" as="geometry">
            <mxPoint x="414" y="720" as="targetPoint" />
          </mxGeometry>
        </mxCell>
        <mxCell id="0v8dPHS8Fib6eOv3jz4j-17" value="" style="edgeStyle=orthogonalEdgeStyle;rounded=0;orthogonalLoop=1;jettySize=auto;html=1;" edge="1" parent="1" source="0v8dPHS8Fib6eOv3jz4j-9" target="0v8dPHS8Fib6eOv3jz4j-16">
          <mxGeometry relative="1" as="geometry" />
        </mxCell>
        <mxCell id="0v8dPHS8Fib6eOv3jz4j-9" value="N-2 krát" style="shape=loopLimit;whiteSpace=wrap;html=1;" vertex="1" parent="1">
          <mxGeometry x="364" y="560" width="100" height="80" as="geometry" />
        </mxCell>
        <mxCell id="0v8dPHS8Fib6eOv3jz4j-15" style="edgeStyle=orthogonalEdgeStyle;rounded=0;orthogonalLoop=1;jettySize=auto;html=1;exitX=1;exitY=0.5;exitDx=0;exitDy=0;entryX=1;entryY=0.5;entryDx=0;entryDy=0;" edge="1" parent="1" source="0v8dPHS8Fib6eOv3jz4j-14" target="0v8dPHS8Fib6eOv3jz4j-9">
          <mxGeometry relative="1" as="geometry">
            <Array as="points">
              <mxPoint x="510" y="710" />
              <mxPoint x="510" y="600" />
            </Array>
          </mxGeometry>
        </mxCell>
        <mxCell id="0v8dPHS8Fib6eOv3jz4j-14" value="c=a+b&lt;br&gt;a=b&lt;br&gt;b=c" style="rounded=0;whiteSpace=wrap;html=1;" vertex="1" parent="1">
          <mxGeometry x="354" y="680" width="120" height="60" as="geometry" />
        </mxCell>
        <mxCell id="0v8dPHS8Fib6eOv3jz4j-16" value="výsledek v c" style="ellipse;whiteSpace=wrap;html=1;" vertex="1" parent="1">
          <mxGeometry x="220" y="560" width="80" height="80" as="geometry" />
        </mxCell>
        <mxCell id="0v8dPHS8Fib6eOv3jz4j-18" value="" style="edgeStyle=orthogonalEdgeStyle;rounded=0;orthogonalLoop=1;jettySize=auto;html=1;" edge="1" parent="1" source="0v8dPHS8Fib6eOv3jz4j-19" target="0v8dPHS8Fib6eOv3jz4j-20">
          <mxGeometry relative="1" as="geometry">
            <mxPoint x="690" y="370.0000000000001" as="targetPoint" />
          </mxGeometry>
        </mxCell>
        <mxCell id="0v8dPHS8Fib6eOv3jz4j-19" value="Fibonacci_rek" style="ellipse;whiteSpace=wrap;html=1;aspect=fixed;" vertex="1" parent="1">
          <mxGeometry x="670" y="250" width="80" height="80" as="geometry" />
        </mxCell>
        <mxCell id="0v8dPHS8Fib6eOv3jz4j-23" style="edgeStyle=orthogonalEdgeStyle;rounded=0;orthogonalLoop=1;jettySize=auto;html=1;entryX=0.5;entryY=0;entryDx=0;entryDy=0;" edge="1" parent="1" source="0v8dPHS8Fib6eOv3jz4j-20" target="0v8dPHS8Fib6eOv3jz4j-22">
          <mxGeometry relative="1" as="geometry" />
        </mxCell>
        <mxCell id="0v8dPHS8Fib6eOv3jz4j-20" value="N=rok(celé číslo)" style="shape=parallelogram;perimeter=parallelogramPerimeter;whiteSpace=wrap;html=1;fixedSize=1;" vertex="1" parent="1">
          <mxGeometry x="650" y="370" width="120" height="60" as="geometry" />
        </mxCell>
        <mxCell id="0v8dPHS8Fib6eOv3jz4j-25" style="edgeStyle=orthogonalEdgeStyle;rounded=0;orthogonalLoop=1;jettySize=auto;html=1;entryX=1;entryY=0.5;entryDx=0;entryDy=0;" edge="1" parent="1" source="0v8dPHS8Fib6eOv3jz4j-22" target="0v8dPHS8Fib6eOv3jz4j-24">
          <mxGeometry relative="1" as="geometry" />
        </mxCell>
        <mxCell id="0v8dPHS8Fib6eOv3jz4j-26" value="ano" style="edgeLabel;html=1;align=center;verticalAlign=middle;resizable=0;points=[];" vertex="1" connectable="0" parent="0v8dPHS8Fib6eOv3jz4j-25">
          <mxGeometry x="-0.0979" y="-2" relative="1" as="geometry">
            <mxPoint as="offset" />
          </mxGeometry>
        </mxCell>
        <mxCell id="0v8dPHS8Fib6eOv3jz4j-31" style="edgeStyle=orthogonalEdgeStyle;rounded=0;orthogonalLoop=1;jettySize=auto;html=1;" edge="1" parent="1" source="0v8dPHS8Fib6eOv3jz4j-22" target="0v8dPHS8Fib6eOv3jz4j-33">
          <mxGeometry relative="1" as="geometry">
            <mxPoint x="745" y="560" as="targetPoint" />
          </mxGeometry>
        </mxCell>
        <mxCell id="0v8dPHS8Fib6eOv3jz4j-32" value="ne" style="edgeLabel;html=1;align=center;verticalAlign=middle;resizable=0;points=[];" vertex="1" connectable="0" parent="0v8dPHS8Fib6eOv3jz4j-31">
          <mxGeometry x="0.109" relative="1" as="geometry">
            <mxPoint as="offset" />
          </mxGeometry>
        </mxCell>
        <mxCell id="0v8dPHS8Fib6eOv3jz4j-22" value="N=1 nebo 2" style="rhombus;whiteSpace=wrap;html=1;" vertex="1" parent="1">
          <mxGeometry x="670" y="450" width="80" height="80" as="geometry" />
        </mxCell>
        <mxCell id="0v8dPHS8Fib6eOv3jz4j-24" value="vysledek =1&amp;nbsp;" style="ellipse;whiteSpace=wrap;html=1;aspect=fixed;" vertex="1" parent="1">
          <mxGeometry x="540" y="450" width="80" height="80" as="geometry" />
        </mxCell>
        <mxCell id="0v8dPHS8Fib6eOv3jz4j-33" value="vysledek = Fibonacci_rek(N-2) + Fibonacci_rek(N-1)" style="ellipse;whiteSpace=wrap;html=1;" vertex="1" parent="1">
          <mxGeometry x="555" y="570" width="310" height="50" as="geometry" />
        </mxCell>
      </root>
    </mxGraphModel>
  </diagram>
</mxfile>
